<?xml version="1.0"?>
<svg xmlns="http://www.w3.org/2000/svg" xmlns:xlink="http://www.w3.org/1999/xlink" xmlns:svgjs="http://svgjs.com/svgjs" version="1.1" width="512" height="512" x="0" y="0" viewBox="0 0 128 128" style="enable-background:new 0 0 512 512" xml:space="preserve" class=""><g><path xmlns="http://www.w3.org/2000/svg" d="M123.529,31.3,112.761,20.53a1.751,1.751,0,0,0-1.238-.512h-15L92.35,15.841a1.754,1.754,0,0,0-1.238-.513H78.084V1.75A1.749,1.749,0,0,0,75.1.513L66.064,9.545H53.924a1.75,1.75,0,0,0-1.238.513l-4.063,4.063L39.2,4.7a1.749,1.749,0,0,0-1.237-.512H29.477a1.749,1.749,0,0,0-1.75,1.75v9.575l-1.419,1.419-4.875-4.874a1.75,1.75,0,0,0-1.238-.513H11.142a1.749,1.749,0,0,0-1.75,1.75v19.5l-4.734,3.55a1.752,1.752,0,0,0-.7,1.4V47.928a1.75,1.75,0,0,0,.513,1.237l5.207,5.207a1.75,1.75,0,0,0,1.237.513H28.18V59.7a1.749,1.749,0,0,0,1.75,1.75h7.65l8.769,8.769a1.749,1.749,0,0,0,1.237.512h4.361V87.089a1.749,1.749,0,0,0,1.75,1.75h4.708L65.763,96.2l.362.363L51.291,111.394a1.748,1.748,0,0,0,0,2.474L64.91,127.487a1.749,1.749,0,0,0,2.475,0L86.423,108.45a1.749,1.749,0,0,0,.512-1.237v-6.271l7.112-7.111h5.376a1.746,1.746,0,0,0,1.237-.513l22.869-22.869a1.75,1.75,0,0,0,.513-1.237V32.535A1.75,1.75,0,0,0,123.529,31.3ZM75.506,67.8A27.647,27.647,0,0,0,58.662,53.127,12.1,12.1,0,0,1,75.506,67.8ZM55.052,55.844a24.064,24.064,0,0,1,18.261,15.9,12.193,12.193,0,0,1-3.807,3.038A19.5,19.5,0,0,0,52.56,60.016,12.112,12.112,0,0,1,55.052,55.844ZM51.875,64c0-.177.019-.349.027-.524A15.993,15.993,0,0,1,66.188,75.914a11.986,11.986,0,0,1-10.741-3.345V68.98a1.75,1.75,0,0,0-1.75-1.75H52.323A11.926,11.926,0,0,1,51.875,64Zm8.492,21.855a1.746,1.746,0,0,0-1.237-.513H55.447V77.031a15.466,15.466,0,0,0,13.268,1.86c.031-.009.06-.021.09-.033a15.666,15.666,0,0,0,7.776-5.635,1.711,1.711,0,0,0,.126-.168,15.6,15.6,0,0,0-23.289-20.52,1.747,1.747,0,0,0-.274.249,15.582,15.582,0,0,0-4.525,8.553c-.005.023-.007.045-.011.068A15.6,15.6,0,0,0,48.375,64a15.367,15.367,0,0,0,.357,3.233H48.31l-8.768-8.768a1.75,1.75,0,0,0-1.237-.513H31.68V57.3L64,32.967,105.213,64,67.162,92.647Zm60.175-17.365L98.7,90.331H93.322a1.75,1.75,0,0,0-1.237.513L83.948,98.98a1.754,1.754,0,0,0-.513,1.238v6.27L66.147,123.775,55,112.631,69.837,97.8a1.751,1.751,0,0,0,0-2.475l-.175-.175L109.175,65.4a1.752,1.752,0,0,0,0-2.8L65.053,29.378a1.752,1.752,0,0,0-2.106,0L31.66,52.936a1.744,1.744,0,0,0-1.73-1.551H11.64L7.458,47.2V38.617l4.733-3.55a1.75,1.75,0,0,0,.7-1.4V15.045h6.579l5.6,5.6a1.751,1.751,0,0,0,2.475,0l3.169-3.169a1.752,1.752,0,0,0,.513-1.238V7.688H37.24L47.386,17.833a1.748,1.748,0,0,0,2.474,0l4.788-4.788H66.789a1.75,1.75,0,0,0,1.237-.513l6.558-6.557v11.1a1.749,1.749,0,0,0,1.75,1.75H90.388l4.175,4.177a1.754,1.754,0,0,0,1.238.513h15l9.743,9.742Z" fill="#ffffff" data-original="#000000" style="" class=""/></g></svg>
