<?xml version="1.0" encoding="utf-8"?>
<!-- Generator: Adobe Illustrator 25.0.1, SVG Export Plug-In . SVG Version: 6.00 Build 0)  -->
<svg version="1.1" id="Camada_1" xmlns:svgjs="http://svgjs.com/svgjs"
	 xmlns="http://www.w3.org/2000/svg" xmlns:xlink="http://www.w3.org/1999/xlink" x="0px" y="0px" viewBox="0 0 512 512"
	 style="enable-background:new 0 0 512 512;" xml:space="preserve">
<style type="text/css">
	.st0{fill:#D0D0D0;}
	.st1{fill:#FFFFFF;}
</style>
<g>
	<g>
		<path class="st0" d="M282.6,241.9l157.5-64.4c1.8-0.8,3.3-2.2,4.1-4c0.8-1.8,0.8-3.9,0-5.7c-9.9-24.1-25.3-46.2-44.7-63.9
			c-19.4-17.8-42.9-31.2-68-38.8c-4-1.2-8.2,1-9.4,5l-49.6,162.8C270.8,238.8,276.8,244.3,282.6,241.9L282.6,241.9z M334.4,81.7
			c20.3,7.2,39.2,18.6,55.1,33.2c15.9,14.5,28.9,32.2,37.9,51.6L291.6,222L334.4,81.7z"/>
		<path class="st0" d="M367.8,65.2c4.1,0,7.5-3.4,7.5-7.5V42.4h19.6c4.1,0,7.5-3.4,7.5-7.5s-3.4-7.5-7.5-7.5h-27.1
			c-4.1,0-7.5,3.4-7.5,7.5v22.8C360.3,61.8,363.7,65.2,367.8,65.2z"/>
		<path class="st0" d="M427.8,16.3H484c4.1,0,7.5-3.4,7.5-7.5s-3.4-7.5-7.5-7.5h-56.1c-4.1,0-7.5,3.4-7.5,7.5S423.7,16.3,427.8,16.3
			z"/>
		<path class="st0" d="M484,23.9h-56.1c-4.1,0-7.5,3.4-7.5,7.5s3.4,7.5,7.5,7.5H484c4.1,0,7.5-3.4,7.5-7.5S488.1,23.9,484,23.9z"/>
		<path class="st0" d="M484,46.5h-56.1c-4.1,0-7.5,3.4-7.5,7.5s3.4,7.5,7.5,7.5H484c4.1,0,7.5-3.4,7.5-7.5S488.1,46.5,484,46.5z"/>
		<path class="st0" d="M394.9,472.1h-19.6v-15.3c0-4.1-3.4-7.5-7.5-7.5s-7.5,3.4-7.5,7.5v22.8c0,4.1,3.4,7.5,7.5,7.5h27.1
			c4.1,0,7.5-3.4,7.5-7.5S399.1,472.1,394.9,472.1z"/>
		<path class="st0" d="M484,498.3h-56.1c-4.1,0-7.5,3.4-7.5,7.5s3.4,7.5,7.5,7.5H484c4.1,0,7.5-3.4,7.5-7.5S488.1,498.3,484,498.3z"
			/>
		<path class="st0" d="M484,475.6h-56.1c-4.1,0-7.5,3.4-7.5,7.5s3.4,7.5,7.5,7.5H484c4.1,0,7.5-3.4,7.5-7.5S488.1,475.6,484,475.6z"
			/>
		<path class="st0" d="M484,453h-56.1c-4.1,0-7.5,3.4-7.5,7.5s3.4,7.5,7.5,7.5H484c4.1,0,7.5-3.4,7.5-7.5S488.1,453,484,453z"/>
		<path class="st0" d="M145.2,449.4c-4.1,0-7.5,3.4-7.5,7.5v15.3h-19.6c-4.1,0-7.5,3.4-7.5,7.5s3.4,7.5,7.5,7.5h27.1
			c4.1,0,7.5-3.4,7.5-7.5v-22.8C152.7,452.8,149.4,449.4,145.2,449.4z"/>
		<path class="st0" d="M85.2,498.3H29c-4.1,0-7.5,3.4-7.5,7.5s3.4,7.5,7.5,7.5h56.1c4.1,0,7.5-3.4,7.5-7.5S89.3,498.3,85.2,498.3z"
			/>
		<path class="st0" d="M85.2,475.6H29c-4.1,0-7.5,3.4-7.5,7.5s3.4,7.5,7.5,7.5h56.1c4.1,0,7.5-3.4,7.5-7.5S89.3,475.6,85.2,475.6z"
			/>
		<path class="st0" d="M85.2,453H29c-4.1,0-7.5,3.4-7.5,7.5s3.4,7.5,7.5,7.5h56.1c4.1,0,7.5-3.4,7.5-7.5S89.3,453,85.2,453z"/>
		<path class="st0" d="M185.5,40.9c4.1,0,7.5-3.4,7.5-7.5s-3.4-7.5-7.5-7.5H71.3c-4.1,0-7.5,3.4-7.5,7.5s3.4,7.5,7.5,7.5H185.5z"/>
		<path class="st0" d="M241.1,272L290,111.6c0.6-1.9,0.4-4-0.6-5.7c-0.9-1.8-2.5-3.1-4.4-3.6c-16.8-5.1-34.2-7.7-51.8-7.7
			c-98,0-177.7,79.7-177.7,177.7c0,45.8,17.4,89.3,49,122.5c2.9,3,7.6,3.1,10.6,0.3s3.1-7.6,0.3-10.6
			C86.5,354,70.6,314.2,70.6,272.2c0-89.7,73-162.7,162.7-162.7c13.6,0,27.1,1.7,40.2,5L226,270c-0.5,1.6-0.4,3.2,0.1,4.8
			l55.6,152.7c-15.7,4.9-32,7.4-48.6,7.4c-34.9,0-68.2-10.9-96.2-31.5c-3.3-2.5-8-1.7-10.5,1.6c-2.5,3.3-1.7,8,1.6,10.5
			c30.6,22.5,67,34.4,105.1,34.4c20.9,0,41.4-3.6,60.8-10.7c3.9-1.4,5.9-5.7,4.5-9.6L241.1,272z"/>
		<path class="st0" d="M457.5,272.2c0-3.6-0.1-7.3-0.4-11.2c-0.3-4.1-3.8-7.3-8-7c-4.1,0.3-7.3,3.8-7,8c0.2,3.5,0.3,7,0.3,10.3
			c0,34-10.4,66.6-30.1,94.3c-17.8,25-41.9,44.2-69.9,55.9l-53.2-145.9l143.8-58.8c1.9,5.2,3.5,10.6,4.8,16c1,4,5,6.5,9.1,5.5
			c4-1,6.5-5,5.5-9.1c-2.1-8.6-4.8-17-8.1-25.1c-1.6-3.8-5.9-5.7-9.8-4.1L277,265.3c-3.7,1.5-5.6,5.7-4.2,9.5L331,434.7
			c1.4,3.9,5.7,5.9,9.6,4.5c33.9-12.4,62.9-34.5,84-64C446.1,345,457.5,309.4,457.5,272.2L457.5,272.2z"/>
		<path class="st0" d="M230.6,79.7c14.1,0,25.6-11.5,25.6-25.6V26.9c0-14.1-11.5-25.6-25.6-25.6H72.1c-4.1,0-7.5,3.4-7.5,7.5
			s3.4,7.5,7.5,7.5h158.5c5.8,0,10.6,4.8,10.6,10.6v27.2c0,5.8-4.8,10.6-10.6,10.6H26.1c-5.8,0-10.6-4.8-10.6-10.6V26.9
			c0-5.8,4.8-10.6,10.6-10.6h16c4.1,0,7.5-3.4,7.5-7.5s-3.4-7.5-7.5-7.5h-16C12,1.3,0.5,12.8,0.5,26.9v27.2
			c0,14.1,11.5,25.6,25.6,25.6L230.6,79.7L230.6,79.7z"/>
	</g>
</g>
<g id="Camada_1_1_" xmlns:svgjs="http://svgjs.com/svgjs">
	<g>
		<path class="st1" d="M457.7,163.1c-9.9-24.1-25.3-46.2-44.7-63.9c-19.4-17.8-42.9-31.2-68-38.8c-4-1.2-8.2,1-9.4,5L286,228.2
			c-1.8,6.1,4.2,11.5,10,9.1l157.5-64.4c1.8-0.8,3.3-2.2,4.1-4C458.4,167,458.4,165,457.7,163.1z"/>
		<path class="st1" d="M381.2,60.6c4.1,0,7.5-3.4,7.5-7.5V37.8h19.6c4.1,0,7.5-3.4,7.5-7.5s-3.4-7.5-7.5-7.5h-27.1
			c-4.1,0-7.5,3.4-7.5,7.5v22.8C373.7,57.2,377.1,60.6,381.2,60.6z"/>
		<path class="st1" d="M441.2,11.7h56.2c4.1,0,7.5-3.4,7.5-7.5s-3.4-7.5-7.5-7.5h-56.1c-4.1,0-7.5,3.4-7.5,7.5
			S437.1,11.7,441.2,11.7z"/>
		<path class="st1" d="M497.4,19.3h-56.1c-4.1,0-7.5,3.4-7.5,7.5s3.4,7.5,7.5,7.5h56.1c4.1,0,7.5-3.4,7.5-7.5S501.5,19.3,497.4,19.3
			z"/>
		<path class="st1" d="M497.4,42h-56.1c-4.1,0-7.5,3.4-7.5,7.5s3.4,7.5,7.5,7.5h56.1c4.1,0,7.5-3.4,7.5-7.5S501.5,42,497.4,42z"/>
		<path class="st1" d="M408.3,467.6h-19.6v-15.3c0-4.1-3.4-7.5-7.5-7.5s-7.5,3.4-7.5,7.5v22.8c0,4.1,3.4,7.5,7.5,7.5h27.1
			c4.1,0,7.5-3.4,7.5-7.5S412.5,467.6,408.3,467.6z"/>
		<path class="st1" d="M497.4,493.7h-56.1c-4.1,0-7.5,3.4-7.5,7.5s3.4,7.5,7.5,7.5h56.1c4.1,0,7.5-3.4,7.5-7.5
			S501.5,493.7,497.4,493.7z"/>
		<path class="st1" d="M497.4,471.1h-56.1c-4.1,0-7.5,3.4-7.5,7.5s3.4,7.5,7.5,7.5h56.1c4.1,0,7.5-3.4,7.5-7.5
			S501.5,471.1,497.4,471.1z"/>
		<path class="st1" d="M497.4,448.4h-56.1c-4.1,0-7.5,3.4-7.5,7.5s3.4,7.5,7.5,7.5h56.1c4.1,0,7.5-3.4,7.5-7.5
			S501.5,448.4,497.4,448.4z"/>
		<path class="st1" d="M158.6,444.8c-4.1,0-7.5,3.4-7.5,7.5v15.3h-19.6c-4.1,0-7.5,3.4-7.5,7.5s3.4,7.5,7.5,7.5h27.1
			c4.1,0,7.5-3.4,7.5-7.5v-22.8C166.1,448.2,162.8,444.8,158.6,444.8z"/>
		<path class="st1" d="M98.6,493.7H42.4c-4.1,0-7.5,3.4-7.5,7.5s3.4,7.5,7.5,7.5h56.1c4.1,0,7.5-3.4,7.5-7.5S102.7,493.7,98.6,493.7
			z"/>
		<path class="st1" d="M98.6,471.1H42.4c-4.1,0-7.5,3.4-7.5,7.5s3.4,7.5,7.5,7.5h56.1c4.1,0,7.5-3.4,7.5-7.5S102.7,471.1,98.6,471.1
			z"/>
		<path class="st1" d="M98.6,448.4H42.4c-4.1,0-7.5,3.4-7.5,7.5s3.4,7.5,7.5,7.5h56.1c4.1,0,7.5-3.4,7.5-7.5S102.7,448.4,98.6,448.4
			z"/>
		<path class="st1" d="M198.9,36.3c4.1,0,7.5-3.4,7.5-7.5s-3.4-7.5-7.5-7.5H84.7c-4.1,0-7.5,3.4-7.5,7.5s3.4,7.5,7.5,7.5H198.9z"/>
		<path class="st1" d="M311.9,425l-57.4-157.6L303.4,107c0.6-1.9,0.4-4-0.6-5.7c-0.9-1.8-2.5-3.1-4.4-3.6
			c-16.8-5.1-34.2-7.7-51.8-7.7c-98,0-177.7,79.7-177.7,177.7c0,45.8,17.4,89.3,49,122.5c0.9,1,2,1.6,3.2,2
			c5.2,5.7,11.1,10.6,17.6,14.7c0.4,1.6,1.4,3,2.8,4c30.6,22.5,67,34.4,105.1,34.4c20.9,0,41.4-3.6,60.8-10.7
			C311.4,433.2,313.4,428.9,311.9,425z M246.6,430.3c-30.6,0-59.9-8.4-85.6-24.3c0.6-2,0.2-4.3-2.1-5.7c-3.5-2.1-6.7-4.4-9.8-6.9
			c0.6-1.8,0.8-3.8,0.5-5.7c-0.1-0.7-0.3-1.3-0.4-2c-0.7-7.9-8.2-14.9-13.3-20.4c-7-7.5-14.7-14.2-23-20.2c-3.1-2.2-6.7,0.4-7.3,3.5
			c-14.1-24.4-21.6-52.2-21.6-81c0-89.7,73-162.7,162.7-162.7c13.6,0,27.1,1.7,40.2,5l-47.5,155.6c-0.5,1.6-0.4,3.2,0.1,4.8
			L295.1,423C279.5,427.8,263.2,430.3,246.6,430.3z"/>
		<path class="st1" d="M470.5,256.5c-0.1-1-0.3-1.9-0.7-2.7c-0.4-7.8-0.5-17.3-3.5-24.6c0-1.1-0.1-2.3-0.1-3.4
			c0-1.1-0.4-2.1-0.9-2.8c-0.2-0.7-0.4-1.3-0.5-2c-0.1-0.8-0.1-1.5-0.2-2.3c-0.1-1.3-0.6-2.3-1.3-3.1c-0.2-1.1-0.4-2.2-0.6-3.3
			s-0.7-2-1.4-2.6c-1.1-3.2-2.2-6.3-3.5-9.4c-1.6-3.8-5.9-5.7-9.8-4.1l-157.6,64.5c-3.7,1.5-5.6,5.7-4.2,9.5l58.2,159.9
			c1.4,3.9,5.7,5.9,9.6,4.5c33.9-12.4,62.9-34.5,84-64c21.5-30.2,32.9-65.8,32.9-103l0,0C470.9,264.1,470.8,260.3,470.5,256.5z"/>
		<path class="st1" d="M244,75.1c14.1,0,25.6-11.5,25.6-25.6V22.3c0-14.1-11.5-25.6-25.6-25.6H85.5c-4.1,0-7.5,3.4-7.5,7.5
			s3.4,7.5,7.5,7.5H244c5.8,0,10.6,4.8,10.6,10.6v27.2c0,5.8-4.8,10.6-10.6,10.6H39.5c-5.8,0-10.6-4.8-10.6-10.6V22.3
			c0-5.8,4.8-10.6,10.6-10.6h16c4.1,0,7.5-3.4,7.5-7.5s-3.3-7.5-7.5-7.5h-16c-14.1,0-25.6,11.5-25.6,25.6v27.2
			c0,14.1,11.5,25.6,25.6,25.6H244L244,75.1z"/>
	</g>
</g>
<path class="st1" d="M293.4,416.7H293c-4.4-11.7-8.6-23.5-12.7-35.3c0.8-2.3-0.1-4.8-2.1-6c-7.5-22.4-14.4-45-20.7-67.8
	c-0.5-3.5-1.5-7-2.8-10.4c-1.3-3.2-4.6-4-7-3c-2.3-8-4.5-16-6.8-24c-0.4-1.4-1.2-2.4-2.2-3c0-0.1,0.1-0.2,0.1-0.4
	c0.7-0.6,1.2-1.4,1.5-2.5c0.6-2.3,1.3-4.6,1.9-6.9c2.1-0.1,4.3-1.3,5.2-3.4c3.1-7.6,5.3-15.4,6.5-23.5c0.2-1.6-0.3-3-1.1-4.2
	c5.9-12.4,11.4-25,16.7-37.7c1.1-2.7-0.7-5-3.1-5.9c0.3-0.3,0.5-0.7,0.7-1.2c3.4-7.7,6.7-15.5,10.1-23.2c1.2-2.9-0.1-5.6-2.2-6.9
	c-0.4-1.2-1.2-2.1-2.3-2.6c1.9-0.1,3.7-1.2,4.5-3.4c1.6-4.4,3.1-8.9,4.5-13.5c0.3-0.5,0.6-1,0.7-1.7c1.2-4.8,2.4-9.5,3.7-14.3
	c0.2-0.8,0.2-1.6,0.1-2.2c0.2-0.8,0.3-1.7,0.5-2.5c5-1.3,4.6-9.8-1.4-9.8h-5.9c-0.4-1.3-1-2.6-1.9-3.9c-3.1-4.3-8.9-6.4-13.7-3.5
	c-2.9,1.8-4.3,4.6-4.5,7.6c-8.1,0.2-16.2,0.6-24.2,1.1c0.7-3.7-3-7.8-7.2-5.3c-3.7,2.2-7.5,4.4-11.2,6.7c-1,0.1-2,0.2-3,0.3
	c-0.8-0.1-1.7-0.2-2.5-0.2c-4.8-1.9-9.7-2.3-14.9-1.2c-2.3,0.5-3.4,2-3.6,3.7c-0.7,0.1-1.5,0.2-2.2,0.3c-3.9,0.5-5.5,4.3-4.5,7.1
	c-0.4,0.4-0.9,0.8-1.3,1.3c-6.8,2-13.6,4.2-20.3,6.7c-1.4-1.3-3.4-1.8-5.6-0.4c-5.8,4-11.6,7.9-17.4,11.9c-1.9,1.2-3.8,2.5-5.6,3.8
	c-2.7,1.9-2.7,5.1-1.3,7.3c-0.7,0.4-1.5,0.7-2.2,1.1c-1.7,0.9-2.4,2.4-2.4,3.9c-1,0.4-2,0.8-3,1.2c-1.3,0.5-2.2,1.4-2.7,2.4
	c-0.6,0.2-1.3,0.5-1.9,0.7c-3.2,1.2-4.2,5-2.9,7.5c-0.8,0.8-1.6,1.7-2.4,2.6c-5.1,1.9-9.6,5-13,10.1c-0.8,1.1-1,2.3-0.7,3.3
	c-4.1,5.7-7.9,11.5-11.4,17.6c-3.3,2.9-5.1,6.9-6.1,11.3l-1.5,3c-0.1,0.2-0.2,0.4-0.3,0.6c-1,2.2-2.1,4.4-3,6.7
	c-1,2.3-0.4,4.5,1,5.9c-2.3,17-2.8,34.1-1.5,51c-0.2,5.5,0.2,10.8,1,16.2c0.1,1,0.6,1.7,1.1,2.3c1.3,8.7,3.1,17.3,5.3,25.9
	c-0.5,2.2-0.4,4.6,0.3,6.8c0.7,2.2,1.8,4,3.3,5.4c2.2,6.8,4.6,13.6,7.4,20.2c0.2,0.4,0.3,0.8,0.5,1.2c1,2.2,2.8,2.9,4.5,2.5
	c0.9,1.2,2.1,1.7,3.3,1.7c4.8,4.8,10.2,8.8,16.2,11.9c3,2.2,5.9,4.5,8.8,6.8c1.3,1,2.6,2.1,3.9,3.1c-1.2,0-2.3,0.3-3.3,0.9
	c-2.8,1.8-3.4,4.7-2.9,7.5h-0.6c-1.3-0.9-2.6-1.8-3.9-2.8c-5.2-3.7-10.2,4.9-5,8.6c2.6,1.9,5.2,3.7,7.8,5.6
	c4.5,5.7,10.1,10.4,16.7,13.7c1.1,0.6,2.2,0.7,3.2,0.5c0,0,0,0,0.1,0c0.4,0.3,0.9,0.5,1.3,0.7c0.8,0.5,1.5,0.9,2.3,1.4
	c7.4,4.2,15.4,7.4,23.5,9.9c17.1,5.4,35,7.7,52.7,10c1.6,0.2,2.8-0.4,3.7-1.5c11.1,0.2,22.2,0.1,33.4-0.4c0.2,0,0.3,0,0.5-0.1
	c5.5,0.9,10.8,0.7,16.3-0.7c0.9-0.2,1.6-0.7,2.2-1.3c0.4-0.2,0.8-0.4,1.2-0.6c1.1-0.6,1.8-1.6,2.2-2.8c0.6,0.3,1.3,0.5,2,0.5h3.9
	C299.8,426.7,299.8,416.7,293.4,416.7z"/>
<path class="st1" d="M-774-210c-6.4,0-6.4,10,0,10C-767.6-200-767.6-210-774-210z"/>
</svg>
