<?xml version="1.0" encoding="utf-8"?>
<!-- Generator: Adobe Illustrator 25.0.1, SVG Export Plug-In . SVG Version: 6.00 Build 0)  -->
<svg version="1.1" xmlns="http://www.w3.org/2000/svg" xmlns:xlink="http://www.w3.org/1999/xlink" x="0px" y="0px"
	 viewBox="0 0 512 512" style="enable-background:new 0 0 512 512;" xml:space="preserve">
<style type="text/css">
	.st0{fill:#FFFFFF;}
</style>
<g id="Camada_1" xmlns:svgjs="http://svgjs.com/svgjs">
	<g>
		<path class="st0" d="M454.3,166.4c-9.9-24.1-25.3-46.2-44.7-63.9c-19.4-17.8-42.9-31.2-68-38.8c-4-1.2-8.2,1-9.4,5l-49.6,162.8
			c-1.8,6.1,4.2,11.5,10,9.1l157.5-64.4c1.8-0.8,3.3-2.2,4.1-4C455,170.3,455,168.3,454.3,166.4z"/>
		<path class="st0" d="M377.8,63.9c4.1,0,7.5-3.4,7.5-7.5V41.1h19.6c4.1,0,7.5-3.4,7.5-7.5s-3.4-7.5-7.5-7.5h-27.1
			c-4.1,0-7.5,3.4-7.5,7.5v22.8C370.3,60.5,373.7,63.9,377.8,63.9z"/>
		<path class="st0" d="M437.8,15H494c4.1,0,7.5-3.4,7.5-7.5S498.1,0,494,0h-56.1c-4.1,0-7.5,3.4-7.5,7.5S433.7,15,437.8,15z"/>
		<path class="st0" d="M494,22.6h-56.1c-4.1,0-7.5,3.4-7.5,7.5s3.4,7.5,7.5,7.5H494c4.1,0,7.5-3.4,7.5-7.5S498.1,22.6,494,22.6z"/>
		<path class="st0" d="M494,45.3h-56.1c-4.1,0-7.5,3.4-7.5,7.5s3.4,7.5,7.5,7.5H494c4.1,0,7.5-3.4,7.5-7.5S498.1,45.3,494,45.3z"/>
		<path class="st0" d="M404.9,470.9h-19.6v-15.3c0-4.1-3.4-7.5-7.5-7.5s-7.5,3.4-7.5,7.5v22.8c0,4.1,3.4,7.5,7.5,7.5h27.1
			c4.1,0,7.5-3.4,7.5-7.5S409.1,470.9,404.9,470.9z"/>
		<path class="st0" d="M494,497h-56.1c-4.1,0-7.5,3.4-7.5,7.5s3.4,7.5,7.5,7.5H494c4.1,0,7.5-3.4,7.5-7.5S498.1,497,494,497z"/>
		<path class="st0" d="M494,474.4h-56.1c-4.1,0-7.5,3.4-7.5,7.5s3.4,7.5,7.5,7.5H494c4.1,0,7.5-3.4,7.5-7.5S498.1,474.4,494,474.4z"
			/>
		<path class="st0" d="M494,451.7h-56.1c-4.1,0-7.5,3.4-7.5,7.5s3.4,7.5,7.5,7.5H494c4.1,0,7.5-3.4,7.5-7.5S498.1,451.7,494,451.7z"
			/>
		<path class="st0" d="M155.2,448.1c-4.1,0-7.5,3.4-7.5,7.5v15.3h-19.6c-4.1,0-7.5,3.4-7.5,7.5s3.4,7.5,7.5,7.5h27.1
			c4.1,0,7.5-3.4,7.5-7.5v-22.8C162.7,451.5,159.4,448.1,155.2,448.1z"/>
		<path class="st0" d="M95.2,497H39c-4.1,0-7.5,3.4-7.5,7.5s3.4,7.5,7.5,7.5h56.1c4.1,0,7.5-3.4,7.5-7.5S99.3,497,95.2,497z"/>
		<path class="st0" d="M95.2,474.4H39c-4.1,0-7.5,3.4-7.5,7.5s3.4,7.5,7.5,7.5h56.1c4.1,0,7.5-3.4,7.5-7.5S99.3,474.4,95.2,474.4z"
			/>
		<path class="st0" d="M95.2,451.7H39c-4.1,0-7.5,3.4-7.5,7.5s3.4,7.5,7.5,7.5h56.1c4.1,0,7.5-3.4,7.5-7.5S99.3,451.7,95.2,451.7z"
			/>
		<path class="st0" d="M195.5,39.6c4.1,0,7.5-3.4,7.5-7.5s-3.4-7.5-7.5-7.5H81.3c-4.1,0-7.5,3.4-7.5,7.5s3.4,7.5,7.5,7.5H195.5z"/>
		<path class="st0" d="M308.5,428.3l-57.4-157.6L300,110.3c0.6-1.9,0.4-4-0.6-5.7c-0.9-1.8-2.5-3.1-4.4-3.6
			c-16.8-5.1-34.2-7.7-51.8-7.7c-98,0-177.7,79.7-177.7,177.7c0,45.8,17.4,89.3,49,122.5c0.9,1,2,1.6,3.2,2
			c5.2,5.7,11.1,10.6,17.6,14.7c0.4,1.6,1.4,3,2.8,4c30.6,22.5,67,34.4,105.1,34.4c20.9,0,41.4-3.6,60.8-10.7
			C308,436.5,310,432.2,308.5,428.3z M243.2,433.6c-30.6,0-59.9-8.4-85.6-24.3c0.6-2,0.2-4.3-2.1-5.7c-3.5-2.1-6.7-4.4-9.8-6.9
			c0.6-1.8,0.8-3.8,0.5-5.7c-0.1-0.7-0.3-1.3-0.4-2c-0.7-7.9-8.2-14.9-13.3-20.4c-7-7.5-14.7-14.2-23-20.2c-3.1-2.2-6.7,0.4-7.3,3.5
			c-14.1-24.4-21.6-52.2-21.6-81c0-89.7,73-162.7,162.7-162.7c13.6,0,27.1,1.7,40.2,5L236,268.8c-0.5,1.6-0.4,3.2,0.1,4.8
			l55.6,152.7C276.1,431.1,259.8,433.6,243.2,433.6z"/>
		<path class="st0" d="M467.1,259.8c-0.1-1-0.3-1.9-0.7-2.7c-0.4-7.8-0.5-17.3-3.5-24.6c0-1.1-0.1-2.3-0.1-3.4
			c0-1.1-0.4-2.1-0.9-2.8c-0.2-0.7-0.4-1.3-0.5-2c-0.1-0.8-0.1-1.5-0.2-2.3c-0.1-1.3-0.6-2.3-1.3-3.1c-0.2-1.1-0.4-2.2-0.6-3.3
			c-0.2-1.1-0.7-2-1.4-2.6c-1.1-3.2-2.2-6.3-3.5-9.4c-1.6-3.8-5.9-5.7-9.8-4.1L287,264c-3.7,1.5-5.6,5.7-4.2,9.5L341,433.4
			c1.4,3.9,5.7,5.9,9.6,4.5c33.9-12.4,62.9-34.5,84-64c21.5-30.2,32.9-65.8,32.9-103l0,0C467.5,267.4,467.4,263.6,467.1,259.8z"/>
		<path class="st0" d="M240.6,78.4c14.1,0,25.6-11.5,25.6-25.6V25.6c0-14.1-11.5-25.6-25.6-25.6H82.1c-4.1,0-7.5,3.4-7.5,7.5
			S78,15,82.1,15h158.5c5.8,0,10.6,4.8,10.6,10.6v27.2c0,5.8-4.8,10.6-10.6,10.6H36.1c-5.8,0-10.6-4.8-10.6-10.6V25.6
			c0-5.8,4.8-10.6,10.6-10.6h16c4.1,0,7.5-3.4,7.5-7.5S56.3,0,52.1,0h-16C22,0,10.5,11.5,10.5,25.6v27.2c0,14.1,11.5,25.6,25.6,25.6
			L240.6,78.4L240.6,78.4z"/>
	</g>
</g>
<g id="Camada_2">
	<path class="st0" d="M290,420c-0.1,0-0.3,0-0.4,0c-4.4-11.7-8.6-23.5-12.7-35.3c0.8-2.3-0.1-4.8-2.1-6c-7.5-22.4-14.4-45-20.7-67.8
		c-0.5-3.5-1.5-7-2.8-10.4c-1.3-3.2-4.6-4-7-3c-2.3-8-4.5-16-6.8-24c-0.4-1.4-1.2-2.4-2.2-3c0-0.1,0.1-0.2,0.1-0.4
		c0.7-0.6,1.2-1.4,1.5-2.5c0.6-2.3,1.3-4.6,1.9-6.9c2.1-0.1,4.3-1.3,5.2-3.4c3.1-7.6,5.3-15.4,6.5-23.5c0.2-1.6-0.3-3-1.1-4.2
		c5.9-12.4,11.4-25,16.7-37.7c1.1-2.7-0.7-5-3.1-5.9c0.3-0.3,0.5-0.7,0.7-1.2c3.4-7.7,6.7-15.5,10.1-23.2c1.2-2.9-0.1-5.6-2.2-6.9
		c-0.4-1.2-1.2-2.1-2.3-2.6c1.9-0.1,3.7-1.2,4.5-3.4c1.6-4.4,3.1-8.9,4.5-13.5c0.3-0.5,0.6-1,0.7-1.7c1.2-4.8,2.4-9.5,3.7-14.3
		c0.2-0.8,0.2-1.6,0.1-2.2c0.2-0.8,0.3-1.7,0.5-2.5c5-1.3,4.6-9.8-1.4-9.8c-2,0-3.9,0-5.9,0c-0.4-1.3-1-2.6-1.9-3.9
		c-3.1-4.3-8.9-6.4-13.7-3.5c-2.9,1.8-4.3,4.6-4.5,7.6c-8.1,0.2-16.2,0.6-24.2,1.1c0.7-3.7-3-7.8-7.2-5.3c-3.7,2.2-7.5,4.4-11.2,6.7
		c-1,0.1-2,0.2-3,0.3c-0.8-0.1-1.7-0.2-2.5-0.2c-4.8-1.9-9.7-2.3-14.9-1.2c-2.3,0.5-3.4,2-3.6,3.7c-0.7,0.1-1.5,0.2-2.2,0.3
		c-3.9,0.5-5.5,4.3-4.5,7.1c-0.4,0.4-0.9,0.8-1.3,1.3c-6.8,2-13.6,4.2-20.3,6.7c-1.4-1.3-3.4-1.8-5.6-0.4c-5.8,4-11.6,7.9-17.4,11.9
		c-1.9,1.2-3.8,2.5-5.6,3.8c-2.7,1.9-2.7,5.1-1.3,7.3c-0.7,0.4-1.5,0.7-2.2,1.1c-1.7,0.9-2.4,2.4-2.4,3.9c-1,0.4-2,0.8-3,1.2
		c-1.3,0.5-2.2,1.4-2.7,2.4c-0.6,0.2-1.3,0.5-1.9,0.7c-3.2,1.2-4.2,5-2.9,7.5c-0.8,0.8-1.6,1.7-2.4,2.6c-5.1,1.9-9.6,5-13,10.1
		c-0.8,1.1-1,2.3-0.7,3.3c-4.1,5.7-7.9,11.5-11.4,17.6c-3.3,2.9-5.1,6.9-6.1,11.3c-0.5,1-1,2-1.5,3c-0.1,0.2-0.2,0.4-0.3,0.6
		c-1,2.2-2.1,4.4-3,6.7c-1,2.3-0.4,4.5,1,5.9c-2.3,17-2.8,34.1-1.5,51c-0.2,5.5,0.2,10.8,1,16.2c0.1,1,0.6,1.7,1.1,2.3
		c3,19.9,8.5,39.5,16.3,58.3c0,0,0,0,0,0c0,0,0,0,0,0c0.2,0.4,0.3,0.8,0.5,1.2c1,2.2,2.8,2.9,4.5,2.5c0.9,1.2,2.1,1.7,3.3,1.7
		c4.8,4.8,10.2,8.8,16.2,11.9c3,2.2,5.9,4.5,8.8,6.8c1.3,1,2.6,2.1,3.9,3.1c-1.2,0-2.3,0.3-3.3,0.9c-2.8,1.8-3.4,4.7-2.9,7.5
		c-0.2,0-0.4,0-0.6,0c-1.3-0.9-2.6-1.8-3.9-2.8c-5.2-3.7-10.2,4.9-5,8.6c2.6,1.9,5.2,3.7,7.8,5.6c4.5,5.7,10.1,10.4,16.7,13.7
		c1.1,0.6,2.2,0.7,3.2,0.5c0,0,0,0,0.1,0c0.4,0.3,0.9,0.5,1.3,0.7c0.8,0.5,1.5,0.9,2.3,1.4c7.4,4.2,15.4,7.4,23.5,9.9
		c17.1,5.4,35,7.7,52.7,10c1.6,0.2,2.8-0.4,3.7-1.5c11.1,0.2,22.2,0.1,33.4-0.4c0.2,0,0.3,0,0.5-0.1c5.5,0.9,10.8,0.7,16.3-0.7
		c0.9-0.2,1.6-0.7,2.2-1.3c0.4-0.2,0.8-0.4,1.2-0.6c1.1-0.6,1.8-1.6,2.2-2.8c0.6,0.3,1.3,0.5,2,0.5l3.9,0
		C296.4,430,296.4,420,290,420z M91.6,273.3c-0.6-1.1-1.5-1.8-2.6-2.2c0.1-2.3,0.2-4.7,0.4-7c1,0.2,2,0.1,3-0.2
		C92.1,267.1,91.9,270.2,91.6,273.3z M172.9,342.1c0.1,0.6,0.3,1.2,0.4,1.8c-0.2,1.6-0.5,3.1-0.7,4.7c-0.1,0-0.1-0.1-0.2-0.1
		C172.6,346.3,172.8,344.2,172.9,342.1z M166.4,371.5c0.2,0.5,0.3,1.1,0.5,1.6c-0.2-0.1-0.4-0.3-0.6-0.4
		C166.3,372.3,166.3,371.9,166.4,371.5z M162.1,387.2c0.5-0.2,0.9-0.6,1.4-0.9c0.4,0.9,1.1,1.8,1.9,2.4c-1.1,0.3-2.2,0.6-3.3,0.9
		c-0.1-0.4-0.1-0.9-0.3-1.4C161.9,387.9,162,387.6,162.1,387.2z M133.5,304.4c0.5,0,1.1-0.1,1.6-0.2c0,0.1-0.1,0.2-0.1,0.4
		c-0.5,0-1.1,0.1-1.6,0.3C133.4,304.7,133.4,304.6,133.5,304.4z M123.9,346.5c0.2-0.1,0.5-0.1,0.7-0.2c0,0.2,0,0.4,0.1,0.6
		c-0.3,0.3-0.6,0.7-0.9,1C123.8,347.5,123.9,347,123.9,346.5z M96.3,320.8c0.3-0.2,0.6-0.3,0.8-0.6c0.1,1.2,0.1,2.5,0.2,3.7
		C97,322.9,96.6,321.8,96.3,320.8z M188.4,335.7c-0.6,0.2-1.1,0.5-1.6,0.9c0.9-3,1.7-6,2.5-9.1c0.4-1.2,0.8-2.4,1.2-3.5
		C189.8,327.9,189.1,331.8,188.4,335.7z M201.7,335.4c-0.1,0-0.2-0.1-0.4-0.1c0.2-0.7,0.4-1.4,0.6-2.1
		C201.8,334,201.8,334.7,201.7,335.4z M212.4,168.1c-0.2-0.3-0.5-0.5-0.8-0.8c0.9-0.8,1.8-1.7,2.7-2.5c0,0,0,0,0.1,0
		C213.7,165.9,213,166.9,212.4,168.1z M227,179.2C227,179.2,227,179.2,227,179.2c-0.2,0.4-0.3,0.7-0.4,1c0.3-1.4,0.5-2.8,0.8-4.3
		c0.3-0.1,0.6-0.2,1-0.3C227.9,176.8,227.4,178,227,179.2z M234.8,301.8c-0.1-0.2-0.2-0.3-0.3-0.5c-0.5-1.2-1-2.4-1.5-3.6
		c0.1-0.9,0.2-1.9,0.3-2.8l2.4,8.3C235.4,302.8,235.1,302.3,234.8,301.8z"/>
</g>
</svg>
