<?xml version="1.0"?>
<svg xmlns="http://www.w3.org/2000/svg" xmlns:xlink="http://www.w3.org/1999/xlink" xmlns:svgjs="http://svgjs.com/svgjs" version="1.1" width="512" height="512" x="0" y="0" viewBox="0 0 512 512" style="enable-background:new 0 0 512 512" xml:space="preserve" class=""><g><g xmlns="http://www.w3.org/2000/svg"><path d="m292.646 240.625 157.537-64.414c1.841-.753 3.309-2.207 4.077-4.042.77-1.835.778-3.9.025-5.741-9.881-24.139-25.323-46.238-44.659-63.912-19.432-17.761-42.946-31.182-68.002-38.811-3.958-1.206-8.151 1.027-9.358 4.987l-49.633 162.803c-1.847 6.062 4.195 11.507 10.013 9.13zm51.73-160.216c20.258 7.231 39.191 18.609 55.131 33.179 15.855 14.492 28.852 32.23 37.891 51.646l-135.811 55.53z" fill="#ffffff" data-original="#000000" style="" class=""/><path d="m377.814 63.881c4.143 0 7.5-3.357 7.5-7.5v-15.252h19.594c4.143 0 7.5-3.357 7.5-7.5s-3.357-7.5-7.5-7.5h-27.094c-4.143 0-7.5 3.357-7.5 7.5v22.752c0 4.142 3.358 7.5 7.5 7.5z" fill="#ffffff" data-original="#000000" style="" class=""/><path d="m437.84 15h56.147c4.143 0 7.5-3.357 7.5-7.5s-3.357-7.5-7.5-7.5h-56.147c-4.143 0-7.5 3.357-7.5 7.5s3.357 7.5 7.5 7.5z" fill="#ffffff" data-original="#000000" style="" class=""/><path d="m493.987 22.635h-56.147c-4.143 0-7.5 3.357-7.5 7.5s3.357 7.5 7.5 7.5h56.147c4.143 0 7.5-3.357 7.5-7.5s-3.357-7.5-7.5-7.5z" fill="#ffffff" data-original="#000000" style="" class=""/><path d="m493.987 45.271h-56.147c-4.143 0-7.5 3.357-7.5 7.5s3.357 7.5 7.5 7.5h56.147c4.143 0 7.5-3.357 7.5-7.5s-3.357-7.5-7.5-7.5z" fill="#ffffff" data-original="#000000" style="" class=""/><path d="m404.908 470.87h-19.594v-15.252c0-4.143-3.357-7.5-7.5-7.5s-7.5 3.357-7.5 7.5v22.752c0 4.143 3.357 7.5 7.5 7.5h27.094c4.143 0 7.5-3.357 7.5-7.5s-3.357-7.5-7.5-7.5z" fill="#ffffff" data-original="#000000" style="" class=""/><path d="m493.987 497h-56.147c-4.143 0-7.5 3.357-7.5 7.5s3.357 7.5 7.5 7.5h56.147c4.143 0 7.5-3.357 7.5-7.5s-3.357-7.5-7.5-7.5z" fill="#ffffff" data-original="#000000" style="" class=""/><path d="m493.987 474.364h-56.147c-4.143 0-7.5 3.357-7.5 7.5s3.357 7.5 7.5 7.5h56.147c4.143 0 7.5-3.357 7.5-7.5s-3.357-7.5-7.5-7.5z" fill="#ffffff" data-original="#000000" style="" class=""/><path d="m493.987 451.729h-56.147c-4.143 0-7.5 3.357-7.5 7.5s3.357 7.5 7.5 7.5h56.147c4.143 0 7.5-3.357 7.5-7.5s-3.357-7.5-7.5-7.5z" fill="#ffffff" data-original="#000000" style="" class=""/><path d="m155.212 448.118c-4.143 0-7.5 3.357-7.5 7.5v15.252h-19.594c-4.143 0-7.5 3.357-7.5 7.5s3.357 7.5 7.5 7.5h27.094c4.143 0 7.5-3.357 7.5-7.5v-22.752c0-4.142-3.358-7.5-7.5-7.5z" fill="#ffffff" data-original="#000000" style="" class=""/><path d="m95.186 497h-56.148c-4.143 0-7.5 3.357-7.5 7.5s3.357 7.5 7.5 7.5h56.147c4.143 0 7.5-3.357 7.5-7.5s-3.357-7.5-7.499-7.5z" fill="#ffffff" data-original="#000000" style="" class=""/><path d="m95.186 474.364h-56.148c-4.143 0-7.5 3.357-7.5 7.5s3.357 7.5 7.5 7.5h56.147c4.143 0 7.5-3.357 7.5-7.5s-3.357-7.5-7.499-7.5z" fill="#ffffff" data-original="#000000" style="" class=""/><path d="m95.186 451.729h-56.148c-4.143 0-7.5 3.357-7.5 7.5s3.357 7.5 7.5 7.5h56.147c4.143 0 7.5-3.357 7.5-7.5s-3.357-7.5-7.499-7.5z" fill="#ffffff" data-original="#000000" style="" class=""/><path d="m195.475 39.635c4.143 0 7.5-3.357 7.5-7.5s-3.357-7.5-7.5-7.5h-114.218c-4.143 0-7.5 3.357-7.5 7.5s3.357 7.5 7.5 7.5z" fill="#ffffff" data-original="#000000" style="" class=""/><path d="m251.123 270.743 48.901-160.404c.58-1.903.381-3.959-.555-5.715-.937-1.756-2.531-3.068-4.435-3.647-16.751-5.101-34.186-7.687-51.817-7.687-97.965 0-177.665 79.7-177.665 177.665 0 45.828 17.4 89.337 48.997 122.511 2.857 3.001 7.604 3.114 10.604.258s3.115-7.604.258-10.604c-28.928-30.372-44.858-70.206-44.858-112.165 0-89.693 72.972-162.665 162.665-162.665 13.628 0 27.124 1.686 40.22 5.018l-47.394 155.46c-.475 1.557-.43 3.226.127 4.755l55.645 152.714c-15.672 4.902-31.984 7.384-48.598 7.384-34.904 0-68.182-10.899-96.232-31.52-3.338-2.453-8.033-1.735-10.485 1.601-2.453 3.338-1.736 8.032 1.601 10.485 30.646 22.526 66.994 34.434 105.117 34.434 20.897 0 41.366-3.599 60.84-10.695 3.892-1.419 5.896-5.723 4.479-9.614z" fill="#ffffff" data-original="#000000" style="" class=""/><path d="m467.473 270.955c0-3.583-.121-7.347-.36-11.186-.258-4.134-3.818-7.287-7.951-7.02-4.135.257-7.277 3.817-7.02 7.951.22 3.53.331 6.98.331 10.254 0 34.037-10.4 66.63-30.075 94.254-17.797 24.986-41.851 44.192-69.898 55.893l-53.175-145.936 143.756-58.779c1.854 5.219 3.451 10.562 4.767 15.959.981 4.024 5.039 6.487 9.063 5.511 4.024-.981 6.491-5.039 5.511-9.063-2.088-8.562-4.824-17.006-8.135-25.094-1.568-3.832-5.944-5.668-9.78-4.102l-157.537 64.415c-3.729 1.525-5.587 5.725-4.208 9.51l58.271 159.923c1.425 3.914 5.747 5.889 9.615 4.479 33.906-12.358 62.942-34.494 83.968-64.014 21.494-30.179 32.857-65.78 32.857-102.955z" fill="#ffffff" data-original="#000000" style="" class=""/><path d="m240.614 78.38c14.118 0 25.604-11.486 25.604-25.604v-27.172c.001-14.118-11.486-25.604-25.604-25.604h-158.509c-4.143 0-7.5 3.357-7.5 7.5s3.357 7.5 7.5 7.5h158.509c5.848 0 10.604 4.757 10.604 10.604v27.171c0 5.848-4.757 10.604-10.604 10.604h-204.497c-5.848 0-10.604-4.757-10.604-10.604v-27.171c0-5.847 4.757-10.604 10.604-10.604h16.001c4.143 0 7.5-3.357 7.5-7.5s-3.357-7.5-7.5-7.5h-16.001c-14.118 0-25.604 11.486-25.604 25.604v27.171c0 14.118 11.486 25.604 25.604 25.604h204.497z" fill="#ffffff" data-original="#000000" style="" class=""/></g></g></svg>
