<?xml version="1.0" standalone="no"?>
<!DOCTYPE svg PUBLIC "-//W3C//DTD SVG 20010904//EN"
 "http://www.w3.org/TR/2001/REC-SVG-20010904/DTD/svg10.dtd">
<svg version="1.0" xmlns="http://www.w3.org/2000/svg"
 width="300.000000pt" height="75.000000pt" viewBox="0 0 300.000000 75.000000"
 preserveAspectRatio="xMidYMid meet">

<g transform="translate(0.000000,75.000000) scale(0.100000,-0.100000)"
fill="#000000" stroke="none">
<path d="M1995 457 c-107 -60 -131 -276 -40 -372 38 -41 101 -59 176 -51 83 8
89 12 89 58 0 34 -2 39 -17 33 -10 -5 -46 -10 -80 -13 -58 -4 -64 -2 -91 25
-57 56 -55 182 3 240 37 37 73 42 132 18 20 -8 37 -14 38 -13 8 15 25 61 25
67 0 16 -62 31 -129 31 -49 0 -76 -6 -106 -23z"/>
<path d="M2312 278 c-39 -112 -74 -211 -77 -220 -6 -16 -1 -18 44 -18 l50 0
14 47 14 48 85 3 86 3 12 -51 12 -50 49 0 c27 0 49 3 49 8 0 6 -97 284 -136
390 l-16 42 -57 0 -58 0 -71 -202z m187 -50 c1 -5 -24 -8 -54 -8 -37 0 -55 4
-55 13 0 12 35 128 47 157 3 9 17 -19 34 -70 15 -47 28 -88 28 -92z"/>
<path d="M2640 440 l0 -40 60 0 60 0 0 -180 0 -180 45 0 45 0 0 180 0 180 60
0 60 0 0 40 0 40 -165 0 -165 0 0 -40z"/>
</g>
</svg>
